HIERARCHY
ROOT Hips
{
     OFFSET 1.88212 96.90440 -13.34250
     CHANNELS 6 Xposition Yposition Zposition Zrotation Xrotation Yrotation
     JOINT Spine
     {
          OFFSET 0.00000 11.89050 0.00000
          CHANNELS 3 Zrotation Xrotation Yrotation
          JOINT Spine1
          {
               OFFSET -0.00000 25.65740 0.12766
               CHANNELS 3 Zrotation Xrotation Yrotation
               JOINT HEad
               {
                    OFFSET 0.00000 8.73416 0.01134
                    CHANNELS 3 Zrotation Xrotation Yrotation
                    End Site
                    {
                         OFFSET -0.29000 12.77420 2.51395
                    }
               }
               JOINT LeftShoulder1
               {
                    OFFSET 8.99000 -0.36225 -0.22000
                    CHANNELS 3 Zrotation Xrotation Yrotation
                    JOINT LeftArm
                    {
                         OFFSET 10.28270 -0.00338 0.32212
                         CHANNELS 3 Zrotation Xrotation Yrotation
                         JOINT LeftForeArm
                         {
                              OFFSET 32.76690 0.09914 -1.42434
                              CHANNELS 3 Zrotation Xrotation Yrotation
                              JOINT LeftHand
                              {
                                   OFFSET 27.56430 0.08536 1.02216
                                   CHANNELS 3 Zrotation Xrotation Yrotation
                                   End Site
                                   {
                                        OFFSET 16.74430 -0.60000 1.50291
                                   }
                              }
                         }
                    }
               }
               JOINT RightShoulder
               {
                    OFFSET -8.99000 -0.36225 -0.22000
                    CHANNELS 3 Zrotation Xrotation Yrotation
                    JOINT RightArm
                    {
                         OFFSET -10.28270 -0.00338 0.32212
                         CHANNELS 3 Zrotation Xrotation Yrotation
                         JOINT RightForeArm
                         {
                              OFFSET -32.89710 0.09914 -1.42434
                              CHANNELS 3 Zrotation Xrotation Yrotation
                              JOINT RightHand
                              {
                                   OFFSET -27.49210 0.08536 1.02216
                                   CHANNELS 3 Zrotation Xrotation Yrotation
                                   End Site
                                   {
                                        OFFSET -16.63120 -0.60000 1.50291
                                   }
                              }
                         }
                    }
               }
          }
     }
     JOINT LeftUpLeg
     {
          OFFSET 8.94580 -8.66707 0.10165
          CHANNELS 3 Zrotation Xrotation Yrotation
          JOINT LeftLeg
          {
               OFFSET 0.00000 -44.42270 1.37270
               CHANNELS 3 Zrotation Xrotation Yrotation
               JOINT LeftFoot
               {
                    OFFSET -0.25355 -42.09240 -1.46059
                    CHANNELS 3 Zrotation Xrotation Yrotation
                    JOINT LeftToes
                    {
                         OFFSET -0.04000 -4.41509 8.49910
                         CHANNELS 3 Zrotation Xrotation Yrotation
                         End Site
                         {
                              OFFSET 0.08000 -0.04745 9.77979
                         }
                    }
               }
          }
     }
     JOINT RightUpLeg
     {
          OFFSET -8.94580 -8.66707 0.10165
          CHANNELS 3 Zrotation Xrotation Yrotation
          JOINT RightLeg
          {
               OFFSET 0.00000 -44.42270 1.37270
               CHANNELS 3 Zrotation Xrotation Yrotation
               JOINT RightFoot
               {
                    OFFSET 0.25355 -42.09240 -1.46059
                    CHANNELS 3 Zrotation Xrotation Yrotation
                    JOINT RightToes
                    {
                         OFFSET 0.04000 -4.41509 8.49910
                         CHANNELS 3 Zrotation Xrotation Yrotation
                         End Site
                         {
                              OFFSET -0.08000 -0.13745 9.77979
                         }
                    }
               }
          }
     }
}
MOTION
Frames: 13
Frame Time: 0.01667
-51.89787 94.30964 -161.46153 9.21450 -12.29108 40.89763 -5.67874 25.05165 -1.88781 -0.00473 0.00809 -0.00078 -7.59736 16.74989 14.30409 -0.77957 10.35159 1.66566 -139.89740 -59.18140 -112.23808 -10.35349 62.10135 -100.86160 17.75657 8.39284 -5.32526 15.74389 11.69942 -9.38931 86.46432 3.27470 70.01133 -11.89125 21.78644 127.77386 16.46806 10.91260 3.56271 13.70678 -1.40974 -13.58864 -24.12151 10.84739 56.99940 -4.45181 0.00307 0.00125 9.11650 -17.32040 -59.74984 -29.36453 6.64441 22.28034 47.12481 17.76875 -44.51663 -26.22571 0.00968 0.00487 6.20817 -30.61851 11.74593 
-51.70583 94.90024 -161.59535 8.83941 -12.46988 40.85250 -5.28444 25.04502 -2.04877 -0.00513 0.00784 0.00012 -7.59310 16.97090 14.43632 -1.12188 10.50304 2.04091 -139.31776 -58.32198 -112.19415 -10.00063 62.11269 -101.15113 17.84208 8.40644 -5.09788 15.34892 11.99956 -8.24554 86.61005 1.98925 69.87918 -12.21490 23.29602 125.98046 14.50309 11.96193 5.94265 13.81242 -1.07710 -13.43796 -23.49972 10.42033 56.57982 -4.72855 0.00289 0.00156 9.36235 -16.80853 -59.83580 -29.13459 5.98428 22.18073 46.78105 18.32654 -43.94543 -25.35568 0.01091 0.00182 6.19732 -29.68404 11.78410 
-51.57519 95.41913 -161.64442 8.42141 -12.58576 40.83489 -4.93943 25.03126 -2.14542 -0.00482 0.00785 0.00144 -7.63166 17.25554 14.50509 -1.43875 10.49343 2.43582 -138.72122 -57.46133 -111.96362 -9.54846 62.19650 -101.63046 17.95313 8.45461 -4.76077 15.11021 12.10525 -7.12028 86.66734 0.90904 69.99789 -12.27315 24.10393 125.06445 14.02262 12.31733 5.95274 13.89560 -0.79401 -13.31154 -22.71955 9.99242 56.08620 -5.07799 0.00272 0.00193 9.60358 -16.26415 -59.85579 -28.94147 5.44414 22.04204 46.41448 18.61745 -43.24330 -24.60675 0.01144 0.00056 6.18596 -28.91363 11.63524 
-51.51746 95.89343 -161.62445 8.00359 -12.62567 40.83618 -4.67845 24.98885 -2.17081 -0.00328 0.00508 -0.00020 -7.71993 17.61515 14.52738 -1.72561 10.38371 2.80505 -138.19870 -56.66534 -111.65001 -9.06355 62.32978 -102.22782 17.97229 8.50884 -4.42296 14.93907 12.08731 -6.36911 86.59950 0.06027 70.20033 -11.88460 24.04390 125.25066 14.54696 12.27427 5.57572 13.92805 -0.57108 -13.19707 -21.82418 9.57708 55.55377 -5.47889 0.00251 0.00229 9.83870 -15.70243 -59.80268 -28.59227 5.18107 21.87921 45.68166 18.28391 -42.37170 -23.85956 0.00653 -0.00211 5.88499 -27.99716 11.33422 
-51.54592 96.23595 -161.55457 7.62356 -12.57751 40.84632 -4.53771 24.91482 -2.11296 -0.00340 0.00472 -0.00018 -7.84999 18.03430 14.50476 -1.95652 10.22000 3.10306 -137.81604 -55.96453 -111.34320 -8.62436 62.47813 -102.85186 18.00071 8.56768 -4.06990 14.65994 11.99831 -5.65439 86.62063 -0.80038 70.73531 -11.07643 23.55641 125.17088 15.64734 12.01197 4.18773 13.89033 -0.43105 -13.08162 -20.86647 9.19306 55.01716 -5.90868 0.00216 0.00254 10.07049 -15.13487 -59.70367 -28.02331 5.26895 21.71560 44.51775 17.41639 -41.38514 -23.09395 0.00622 -0.00416 5.33486 -27.12074 10.91915 
-51.67068 96.43159 -161.44667 7.30680 -12.44067 40.85963 -4.52924 24.80943 -1.98126 -0.00259 0.00373 -0.00155 -8.02954 18.50296 14.45954 -2.12695 10.04818 3.27889 -137.63017 -55.38343 -111.14184 -8.27064 62.61421 -103.42723 17.96543 8.62409 -3.76776 14.26610 11.87932 -5.07416 86.67260 -1.72952 71.52102 -9.90235 22.54578 125.00155 17.64145 11.11006 3.17940 13.78197 -0.39089 -12.95886 -19.89840 8.85712 54.50420 -6.34937 0.00166 0.00266 10.30796 -14.59052 -59.57832 -27.27485 5.69255 21.56851 42.96637 16.15346 -40.34195 -22.25816 0.00580 -0.00629 4.52277 -26.25201 10.49804 
-51.89301 96.50986 -161.29965 7.06489 -12.22687 40.87587 -4.65025 24.68549 -1.78703 -0.00337 0.00475 -0.00169 -8.24992 18.99678 14.39983 -2.22714 9.87650 3.33375 -137.61127 -54.91865 -111.04440 -8.02924 62.72028 -103.90308 17.92110 8.68229 -3.50243 13.80491 11.73429 -4.43416 86.81353 -2.69039 72.58855 -8.75287 21.53903 124.20645 19.13154 10.48810 2.24055 13.62019 -0.44996 -12.82906 -18.96027 8.58042 54.03252 -6.79240 0.00115 0.00268 10.55999 -14.10795 -59.45350 -26.42036 6.39077 21.44284 41.12283 14.60304 -39.30497 -21.33421 0.00530 -0.00833 3.52101 -25.55679 10.08389 
-52.20594 96.51577 -161.10837 6.89869 -11.95687 40.89872 -4.88179 24.55261 -1.54914 -0.00400 0.00481 -0.00239 -8.50950 19.50344 14.33902 -2.26553 9.70708 3.30058 -137.69777 -54.55928 -111.01127 -7.90710 62.79163 -104.26161 17.82293 8.74069 -3.30127 13.41369 11.56212 -3.85346 86.94847 -3.48401 73.73029 -7.87753 20.67127 123.18208 20.54930 9.71248 1.90568 13.43162 -0.58941 -12.69720 -18.07778 8.36965 53.61170 -7.23738 0.00075 0.00267 10.82543 -13.71394 -59.34653 -25.52979 7.28916 21.33409 39.10552 12.84771 -38.33551 -20.32755 0.00509 -0.00994 2.36542 -24.99107 9.74469 
-52.59334 96.48589 -160.86975 6.80082 -11.65550 40.93265 -5.20010 24.42747 -1.27650 -0.00552 0.00701 -0.00126 -8.79205 20.00113 14.27019 -2.24728 9.52903 3.21769 -137.82863 -54.28453 -110.99232 -7.89884 62.83395 -104.51537 17.70487 8.80881 -3.12839 13.30292 11.34709 -3.14442 87.01035 -3.93789 74.71909 -7.94454 20.62213 121.71003 20.62068 9.49868 1.97678 13.24433 -0.78142 -12.57139 -17.26662 8.22952 53.24722 -7.68650 0.00054 0.00265 11.08678 -13.40279 -59.26522 -24.65787 8.31549 21.23433 37.03498 10.96011 -37.48415 -19.25709 0.00508 -0.01101 1.10278 -24.57061 9.48520 
-53.03683 96.44010 -160.58630 6.76141 -11.34687 40.98141 -5.57573 24.31806 -0.98253 -0.00486 0.00708 -0.00121 -9.09445 20.48643 14.19662 -2.19025 9.35245 3.11626 -137.98502 -54.08080 -110.97560 -7.98653 62.86284 -104.69708 17.54818 8.88889 -2.97418 13.35665 11.11081 -2.50951 87.03698 -4.00653 75.47923 -8.53022 20.96782 120.17471 20.26116 9.38307 2.62152 13.08071 -0.99820 -12.46198 -16.53851 8.16314 52.94239 -8.13899 0.00050 0.00259 11.31881 -13.15060 -59.20562 -23.84318 9.40674 21.13738 35.01909 9.01264 -36.78563 -18.14581 0.00510 -0.01145 -0.23430 -24.26099 9.30538 
-53.53506 96.42960 -160.25520 6.77788 -11.03917 41.04835 -5.88338 24.15074 -0.74614 -0.00542 0.00833 -0.00112 -9.54196 21.03786 14.16194 -2.37834 9.25196 2.96195 -138.13911 -54.03800 -111.06411 -8.06949 62.91620 -104.91928 17.40108 8.96515 -2.83766 13.53605 10.94002 -1.99553 86.91374 -3.81215 75.91387 -9.42382 21.52025 118.80730 19.68797 9.49661 3.09486 12.94608 -1.21823 -12.37836 -15.89948 8.16623 52.69677 -8.59076 0.00068 0.00250 11.50624 -12.94127 -59.16019 -23.10678 10.51141 21.03713 33.13070 7.06754 -36.25872 -17.02055 0.00514 -0.01122 -1.61571 -24.04397 9.19011 
-54.08490 96.50793 -159.86995 6.84392 -10.73136 41.13416 -6.10991 23.91296 -0.59318 -0.00600 0.00944 -0.00119 -10.15104 21.66481 14.19178 -2.83127 9.24285 2.80066 -138.30785 -54.17810 -111.22142 -8.08163 63.02848 -105.25654 17.28047 9.01147 -2.75418 13.79464 10.86002 -1.60832 86.64310 -3.45782 75.97637 -10.47781 22.14975 117.75942 19.03231 9.60842 3.80287 12.84132 -1.42566 -12.32699 -15.34489 8.22388 52.50636 -9.03414 0.00117 0.00242 11.64701 -12.77459 -59.12452 -22.44105 11.59053 20.92457 31.40311 5.17341 -35.90606 -15.90398 0.00528 -0.01040 -3.02804 -23.90576 9.14102 
-54.67388 96.69784 -159.43137 6.94697 -10.42546 41.23687 -6.27382 23.60639 -0.51023 -0.00617 0.01044 -0.00133 -10.87753 22.35179 14.27800 -3.44389 9.32316 2.63782 -138.55501 -54.48959 -111.42093 -8.00286 63.20943 -105.71531 17.21537 9.01349 -2.75501 14.06887 10.87047 -1.31917 86.29465 -3.05165 75.70635 -11.58568 22.77532 117.04168 18.38104 9.83899 4.31826 12.76853 -1.60629 -12.31213 -14.86151 8.31470 52.36634 -9.45437 0.00197 0.00236 11.73933 -12.65227 -59.09715 -21.82026 12.62005 20.79049 29.84242 3.36860 -35.71679 -14.80491 0.00562 -0.00923 -4.46738 -23.86661 9.17771 
